custom-analysis
version=1
nRows=6
nColumns=98
inDegrees=no

This file contains tibia displacement and acting force.

Units are S.I. units (seconds, meters, Newtons, ...)
Angles are in degrees.

endheader
time	APT	SIT	knee_angle	aACL_R_force	pACL_R_force	aPCL_R_force	pPCL_R_force	aMCL_R_force	mMCL_R_force	pMCL_R_force	aLCL_R_force	mLCL_R_force	pLCL_R_force	aPCL_L_force	pPCL_L_force	aMCL_L_force	aLCL_L_force	aACL_R_length	pACL_R_length	aPCL_R_length	pPCL_R_length	aMCL_R_length	mMCL_R_length	pMCL_R_length	aLCL_R_length	mLCL_R_length	pLCL_R_length	aPCL_L_length	pPCL_L_length	aMCL_L_length	aLCL_L_length	aACL_R_strain	pACL_R_strain	aPCL_R_strain	pPCL_R_strain	aMCL_R_strain	mMCL_R_strain	pMCL_R_strain	aLCL_R_strain	mLCL_R_strain	pLCL_R_strain	aPCL_L_strain	pPCL_L_strain	aMCL_L_strain	aLCL_L_strain	femur_lat_meniscii_r.femur_lat_r.force.X	femur_lat_meniscii_r.femur_lat_r.force.Y	femur_lat_meniscii_r.femur_lat_r.force.Z	femur_lat_meniscii_r.femur_lat_r.torque.X	femur_lat_meniscii_r.femur_lat_r.torque.Y	femur_lat_meniscii_r.femur_lat_r.torque.Z	femur_lat_meniscii_r.meniscus_lat_r.force.X	femur_lat_meniscii_r.meniscus_lat_r.force.Y	femur_lat_meniscii_r.meniscus_lat_r.force.Z	femur_lat_meniscii_r.meniscus_lat_r.torque.X	femur_lat_meniscii_r.meniscus_lat_r.torque.Y	femur_lat_meniscii_r.meniscus_lat_r.torque.Z	femur_med_meniscii_r.femur_med_r.force.X	femur_med_meniscii_r.femur_med_r.force.Y	femur_med_meniscii_r.femur_med_r.force.Z	femur_med_meniscii_r.femur_med_r.torque.X	femur_med_meniscii_r.femur_med_r.torque.Y	femur_med_meniscii_r.femur_med_r.torque.Z	femur_med_meniscii_r.meniscus_med_r.force.X	femur_med_meniscii_r.meniscus_med_r.force.Y	femur_med_meniscii_r.meniscus_med_r.force.Z	femur_med_meniscii_r.meniscus_med_r.torque.X	femur_med_meniscii_r.meniscus_med_r.torque.Y	femur_med_meniscii_r.meniscus_med_r.torque.Z	femur_med_tibia_r.tibia_upper_r.force.X	femur_med_tibia_r.tibia_upper_r.force.Y	femur_med_tibia_r.tibia_upper_r.force.Z	femur_med_tibia_r.tibia_upper_r.torque.X	femur_med_tibia_r.tibia_upper_r.torque.Y	femur_med_tibia_r.tibia_upper_r.torque.Z	femur_med_tibia_r.femur_med_r.force.X	femur_med_tibia_r.femur_med_r.force.Y	femur_med_tibia_r.femur_med_r.force.Z	femur_med_tibia_r.femur_med_r.torque.X	femur_med_tibia_r.femur_med_r.torque.Y	femur_med_tibia_r.femur_med_r.torque.Z	femur_lat_tibia_r.tibia_upper_r.force.X	femur_lat_tibia_r.tibia_upper_r.force.Y	femur_lat_tibia_r.tibia_upper_r.force.Z	femur_lat_tibia_r.tibia_upper_r.torque.X	femur_lat_tibia_r.tibia_upper_r.torque.Y	femur_lat_tibia_r.tibia_upper_r.torque.Z	femur_lat_tibia_r.femur_lat_r.force.X	femur_lat_tibia_r.femur_lat_r.force.Y	femur_lat_tibia_r.femur_lat_r.force.Z	femur_lat_tibia_r.femur_lat_r.torque.X	femur_lat_tibia_r.femur_lat_r.torque.Y	femur_lat_tibia_r.femur_lat_r.torque.Z	femur_lat_meniscii_force_r	femur_med_meniscii_force_r	femur_lat_tibia_force_r	femur_med_tibia_force_r
      0.16955740	      0.01181140	      0.01542580	     55.46998941	     30.04714605	     19.97189283	    805.87579296	    518.57495875	      0.00000000	      0.00000000	      0.00000000	    -15.16347132	      0.00000000	      0.00000000	      0.00000000	      0.00000000	      0.00000001	      0.00000000	      0.03272611	      0.02605046	      0.03624903	      0.03335297	      0.05894030	      0.05856657	      0.05558887	      0.05614144	      0.05145377	      0.04665527	      0.01525851	      0.01651186	      0.06550154	      0.04489616	      0.05549356	      0.03957758	      0.16573976	      0.11593928	     -0.01810345	     -0.02051946	     -0.05345196	      0.00293405	     -0.08638053	     -0.10865765	      0.00000079	     -0.32847694	      0.00000060	     -0.00000086	    389.54592271	    288.16613166	    101.00891494	    -47.65824918	      9.72627680	    156.09031215	   -389.54592271	   -288.16613166	   -101.00891494	      9.33288521	    -12.47164621	     -0.45442830	    761.68971303	    483.97719004	    -48.76192519	     28.85651372	    -14.36354890	    303.16147297	   -761.68971303	   -483.97719004	     48.76192519	     -8.94756257	     13.54359873	     -0.31030263	   -134.02768592	   -293.69117260	    103.21251555	     -6.45146376	      4.24183640	      3.77562336	    134.02768592	    293.69117260	   -103.21251555	     46.94142672	     -2.63841570	     53.36557227	      0.00000000	      0.00000000	      0.00000000	      0.00000000	      0.00000000	      0.00000000	      0.00000000	      0.00000000	      0.00000000	      0.00000000	      0.00000000	      0.00000000	    494.96317665	    903.76040230	      0.00000000	    338.92587511
      0.17016763	      0.01185135	      0.01552520	     55.75550973	     30.00603912	     19.88661450	    810.88774274	    520.24573526	      0.00000000	      0.00000000	      0.00000000	    -16.53685661	      0.00000000	      0.00000000	      0.00000000	      0.00000000	      0.00000001	      0.00000000	      0.03273656	      0.02606247	      0.03628095	      0.03337426	      0.05896263	      0.05856946	      0.05557795	      0.05613077	      0.05143115	      0.04662344	      0.01525851	      0.01651186	      0.06550154	      0.04489616	      0.05583086	      0.04005674	      0.16676641	      0.11665162	     -0.01773157	     -0.02047108	     -0.05363801	      0.00274352	     -0.08678215	     -0.10926573	      0.00000079	     -0.32847694	      0.00000060	     -0.00000086	    395.20884807	    290.89509135	    101.17193462	    -47.77848995	      9.84050769	    158.35137101	   -395.20884807	   -290.89509135	   -101.17193462	      9.38454068	    -12.60573449	     -0.42200630	    768.87743870	    492.70573869	    -51.50043387	     30.07717474	    -14.44848896	    305.91835130	   -768.87743870	   -492.70573869	     51.50043387	     -9.09544994	     13.67959624	     -0.02700670	   -137.02259850	   -293.53465445	    102.21029232	     -6.40839224	      4.26603523	      3.74734564	    137.02259850	    293.53465445	   -102.21029232	     46.51436767	     -2.67569104	     54.58578273	      0.00000000	      0.00000000	      0.00000000	      0.00000000	      0.00000000	      0.00000000	      0.00000000	      0.00000000	      0.00000000	      0.00000000	      0.00000000	      0.00000000	    501.04465681	    914.64952597	      0.00000000	    339.68327854
      0.17041806	      0.01186791	      0.01556615	     55.87268921	     30.16608175	     20.00667820	    813.04797956	    521.26020672	      0.00000000	      0.00000000	      0.00000000	    -16.56887127	      0.00000000	      0.00000000	      0.00000000	      0.00000000	      0.00000001	      0.00000000	      0.03274084	      0.02606734	      0.03629380	      0.03338275	      0.05897169	      0.05857056	      0.05557342	      0.05612624	      0.05142173	      0.04661026	      0.01525851	      0.01651186	      0.06550154	      0.04489616	      0.05596874	      0.04025128	      0.16717963	      0.11693564	     -0.01758059	     -0.02045271	     -0.05371504	      0.00266256	     -0.08694938	     -0.10951749	      0.00000079	     -0.32847694	      0.00000060	     -0.00000086	    399.56793985	    288.26959247	    101.05367048	    -47.66398569	      9.93437261	    160.16526976	   -399.56793985	   -288.26959247	   -101.05367048	      9.30489725	    -12.70880840	     -0.57831620	    771.87595488	    488.60361397	    -50.57030790	     29.53944202	    -14.45150197	    307.15113639	   -771.87595488	   -488.60361397	     50.57030790	     -8.92740680	     13.66550193	     -0.13517084	   -138.17720708	   -293.13654472	    101.87134128	     -6.38918522	      4.27718811	      3.72941576	    138.17720708	    293.13654472	   -101.87134128	     46.36473222	     -2.69070727	     55.05811833	      0.00000000	      0.00000000	      0.00000000	      0.00000000	      0.00000000	      0.00000000	      0.00000000	      0.00000000	      0.00000000	      0.00000000	      0.00000000	      0.00000000	    502.95699698	    914.92258544	      0.00000000	    339.70537909
      0.17066850	      0.01188437	      0.01560712	     55.98983888	     30.06852838	     19.95852099	    815.33960321	    522.66413625	      0.00000000	      0.00000000	      0.00000000	    -16.67910879	      0.00000000	      0.00000000	      0.00000000	      0.00000000	      0.00000001	      0.00000000	      0.03274504	      0.02607216	      0.03630663	      0.03339123	      0.05898073	      0.05857166	      0.05556893	      0.05612169	      0.05141230	      0.04659709	      0.01525851	      0.01651186	      0.06550154	      0.04489616	      0.05610438	      0.04044362	      0.16759233	      0.11721931	     -0.01742991	     -0.02043434	     -0.05379151	      0.00258120	     -0.08711680	     -0.10976902	      0.00000079	     -0.32847694	      0.00000060	     -0.00000086	    400.23551497	    289.54317680	    102.88389156	    -48.43911504	      9.96932980	    160.41214683	   -400.23551497	   -289.54317680	   -102.88389156	      9.37148985	    -12.78099377	     -0.51977729	    773.76028183	    480.45326793	    -50.84752231	     29.47866761	    -14.45385505	    307.98397563	   -773.76028183	   -480.45326793	     50.84752231	     -8.77932939	     13.67572543	     -0.34910681	   -138.85784638	   -293.51630380	    101.60697271	     -6.38126684	      4.28487067	      3.74631460	    138.85784638	    293.51630380	   -101.60697271	     46.25689375	     -2.69982260	     55.32720141	      0.00000000	      0.00000000	      0.00000000	      0.00000000	      0.00000000	      0.00000000	      0.00000000	      0.00000000	      0.00000000	      0.00000000	      0.00000000	      0.00000000	    504.58776622	    912.20928900	      0.00000000	    340.23124342
      0.17117157	      0.01191701	      0.01568956	     56.22505592	     29.76248765	     19.74355009	    819.89901667	    525.38989821	      0.00000000	      0.00000000	      0.00000000	    -17.04576173	      0.00000000	      0.00000000	      0.00000000	      0.00000000	      0.00000001	      0.00000000	      0.03275318	      0.02608160	      0.03633239	      0.03340827	      0.05899878	      0.05857381	      0.05555997	      0.05611245	      0.05139332	      0.04657067	      0.01525851	      0.01651186	      0.06550154	      0.04489616	      0.05636679	      0.04082011	      0.16842070	      0.11778945	     -0.01712933	     -0.02039836	     -0.05394417	      0.00241625	     -0.08745390	     -0.11027376	      0.00000079	     -0.32847694	      0.00000060	     -0.00000086	    402.82543930	    287.71676121	    103.43350868	    -48.61881751	     10.02699349	    161.47729519	   -402.82543930	   -287.71676121	   -103.43350868	      9.32491591	    -12.85796662	     -0.57101048	    771.46416841	    457.98671861	    -59.95009973	     32.82391332	    -14.49343161	    307.24603261	   -771.46416841	   -457.98671861	     59.95009973	     -8.66323112	     13.90492949	     -0.83162255	   -139.95803844	   -294.41193250	    100.82665261	     -6.35909573	      4.29100180	      3.79116379	    139.95803844	    294.41193250	   -100.82665261	     45.93795682	     -2.71295200	     55.75634968	      0.00000000	      0.00000000	      0.00000000	      0.00000000	      0.00000000	      0.00000000	      0.00000000	      0.00000000	      0.00000000	      0.00000000	      0.00000000	      0.00000000	    505.71509760	    899.16784419	      0.00000000	    341.22229177
      0.17151487	      0.01193841	      0.01574616	     56.38538135	     28.90112667	     19.06035608	    823.00829395	    527.32553918	      0.00000000	      0.00000000	      0.00000000	    -18.02092166	      0.00000000	      0.00000000	      0.00000000	      0.00000000	      0.00000001	      0.00000000	      0.03275797	      0.02608741	      0.03634999	      0.03341997	      0.05901072	      0.05857500	      0.05555368	      0.05610590	      0.05138014	      0.04655251	      0.01525851	      0.01651186	      0.06550154	      0.04489616	      0.05652134	      0.04105186	      0.16898673	      0.11818090	     -0.01693043	     -0.02037844	     -0.05405120	      0.00229914	     -0.08768783	     -0.11062072	      0.00000079	     -0.32847694	      0.00000060	     -0.00000086	    406.03962051	    288.27200955	    104.53783692	    -49.08730761	     10.10883827	    162.77276035	   -406.03962051	   -288.27200955	   -104.53783692	      9.36136029	    -12.96973703	     -0.58243668	    766.29258163	    447.63534756	    -55.69696430	     30.94547696	    -14.30685391	    305.23883447	   -766.29258163	   -447.63534756	     55.69696430	     -8.45148575	     13.66016200	     -0.95840107	   -140.00558803	   -297.04211117	    100.06465363	     -6.36100412	      4.28112486	      3.89694432	    140.00558803	    297.04211117	   -100.06465363	     45.65297932	     -2.71065707	     55.74040957	      0.00000000	      0.00000000	      0.00000000	      0.00000000	      0.00000000	      0.00000000	      0.00000000	      0.00000000	      0.00000000	      0.00000000	      0.00000000	      0.00000000	    508.81930414	    889.20406931	      0.00000000	    343.29071556
